# xmcd
#
# Track frame offsets:
#	150
#	18372
#	38902
#	58625
#
# Disc length: 1039 seconds
# Revision: 0
# Processed by: cddbd v1.5.2PL0 Copyright (c) Steve Scherf et al.
# Submitted via: dBpowerAMP V12.0
#
DISCID=2a040d04
DTITLE=Pasadenas, The - Another Lover (Single)
DYEAR=1991
DGENRE=Pop
TTITLE0=Another Lover
TTITLE1=Love To Dance (House Mix)
TTITLE2=Tribute (Right On)
TTITLE3=Riding On A Train
EXTD=
EXTT0=
EXTT1=
EXTT2=
EXTT3=
PLAYORDER=
